<svg width="188" height="56" viewBox="0 0 188 56" fill="none" xmlns="http://www.w3.org/2000/svg">
<g clip-path="url(#clip0_281_604)">
<path fill-rule="evenodd" clip-rule="evenodd" d="M181.012 55.6H7.32159C3.4746 55.6 0.341553 52.4664 0.341553 48.65V6.95C0.341553 3.1197 3.4746 0 7.32159 0H181.012C184.855 0 187.992 3.1197 187.992 6.95V48.65C187.992 52.4664 184.855 55.6 181.012 55.6Z" fill="black"/>
<path fill-rule="evenodd" clip-rule="evenodd" d="M181.012 1.11269C184.238 1.11269 186.879 3.73671 186.879 6.95V48.65C186.879 51.8633 184.255 54.4873 181.012 54.4873H7.32159C4.09497 54.4873 1.45406 51.8633 1.45406 48.65V6.95C1.45406 3.73671 4.07764 1.11269 7.32159 1.11269H181.012ZM181.012 0H7.32159C3.4746 0 0.341553 3.13357 0.341553 6.95V48.65C0.341553 52.4803 3.4746 55.6 7.32159 55.6H181.012C184.855 55.6 187.992 52.4803 187.992 48.65V6.95C187.992 3.13357 184.855 0 181.012 0Z" fill="#A6A6A6"/>
<path d="M95.0506 30.235C91.7813 30.235 89.1166 32.7203 89.1166 36.1467C89.1166 39.5508 91.7813 42.0584 95.0506 42.0584C98.3198 42.0584 100.984 39.5508 100.984 36.1467C100.984 32.7203 98.3198 30.235 95.0506 30.235ZM95.0506 39.7301C93.2588 39.7301 91.7132 38.2525 91.7132 36.1467C91.7132 34.0186 93.2588 32.5633 95.0506 32.5633C96.8423 32.5633 98.3866 34.0186 98.3866 36.1467C98.3866 38.2511 96.8423 39.7301 95.0506 39.7301ZM82.1041 30.235C78.8348 30.235 76.1702 32.7203 76.1702 36.1467C76.1702 39.5508 78.8348 42.0584 82.1041 42.0584C85.3734 42.0584 88.038 39.5508 88.038 36.1467C88.0394 32.7203 85.3734 30.235 82.1041 30.235ZM82.1041 39.7301C80.3124 39.7301 78.7681 38.2525 78.7681 36.1467C78.7681 34.0186 80.3138 32.5633 82.1041 32.5633C83.8958 32.5633 85.4401 34.0186 85.4401 36.1467C85.4415 38.2511 83.8958 39.7301 82.1041 39.7301ZM66.7057 32.049V34.5565H72.7077C72.5284 35.9674 72.0586 36.9974 71.3413 37.7146C70.4684 38.5875 69.102 39.5508 66.7057 39.5508C63.0111 39.5508 60.1226 36.572 60.1226 32.8774C60.1226 29.1828 63.0111 26.204 66.7057 26.204C68.6989 26.204 70.1543 26.988 71.2287 27.9957L72.9982 26.2263C71.4984 24.7932 69.5051 23.6951 66.7057 23.6951C61.6447 23.6951 57.3899 27.815 57.3899 32.876C57.3899 37.937 61.6447 42.057 66.7057 42.057C69.437 42.057 71.4984 41.1618 73.1108 39.4813C74.7677 37.8244 75.2834 35.4948 75.2834 33.6141C75.2834 33.0317 75.2389 32.4938 75.1485 32.0462H66.7057V32.049ZM129.684 33.9964C129.192 32.6745 127.691 30.2336 124.623 30.2336C121.577 30.2336 119.048 32.63 119.048 36.1453C119.048 39.4591 121.555 42.057 124.915 42.057C127.624 42.057 129.192 40.4001 129.841 39.4368L127.825 38.0927C127.154 39.0782 126.235 39.7273 124.915 39.7273C123.593 39.7273 122.653 39.1227 122.049 37.9356L129.953 34.6663L129.684 33.9964ZM121.622 35.9674C121.555 33.6836 123.391 32.5188 124.712 32.5188C125.742 32.5188 126.615 33.0331 126.907 33.7726L121.622 35.9674ZM115.194 41.6997H117.792V24.3233H115.194V41.6997ZM110.94 31.5555H110.851C110.268 30.8619 109.149 30.2336 107.738 30.2336C104.782 30.2336 102.073 32.8315 102.073 36.1675C102.073 39.4813 104.782 42.057 107.738 42.057C109.149 42.057 110.268 41.4301 110.851 40.7128H110.94V41.5635C110.94 43.825 109.73 45.0343 107.782 45.0343C106.191 45.0343 105.206 43.8918 104.803 42.9299L102.541 43.8709C103.19 45.4388 104.915 47.364 107.782 47.364C110.827 47.364 113.403 45.5723 113.403 41.2063V30.5922H110.94V31.5555ZM107.962 39.7301C106.171 39.7301 104.671 38.2303 104.671 36.1689C104.671 34.0867 106.171 32.5633 107.962 32.5633C109.732 32.5633 111.119 34.0853 111.119 36.1689C111.119 38.2289 109.732 39.7301 107.962 39.7301ZM141.852 24.3233H135.637V41.6997H138.23V35.1167H141.85C144.725 35.1167 147.551 33.0359 147.551 29.7207C147.551 26.4056 144.726 24.3233 141.852 24.3233ZM141.919 32.6981H138.23V26.7419H141.919C143.858 26.7419 144.959 28.3474 144.959 29.7207C144.959 31.0662 143.858 32.6981 141.919 32.6981ZM157.948 30.203C156.07 30.203 154.126 31.0301 153.321 32.8635L155.624 33.8254C156.116 32.8635 157.032 32.5508 157.994 32.5508C159.335 32.5508 160.699 33.3556 160.721 34.7859V34.9652C160.251 34.6969 159.245 34.2938 158.016 34.2938C155.535 34.2938 153.008 35.6574 153.008 38.2067C153.008 40.5321 155.043 42.0292 157.323 42.0292C159.067 42.0292 160.027 41.2466 160.631 40.3306H160.72V41.6719H163.223V35.0097C163.223 31.9239 160.921 30.203 157.948 30.203ZM157.634 39.7259C156.785 39.7259 155.599 39.3006 155.599 38.2511C155.599 36.9098 157.075 36.3955 158.348 36.3955C159.488 36.3955 160.025 36.6415 160.718 36.9765C160.518 38.5861 159.132 39.7259 157.634 39.7259ZM172.344 30.5825L169.371 38.1163H169.282L166.198 30.5825H163.404L168.031 41.1118L165.393 46.9692H168.098L175.23 30.5825H172.344ZM148.983 41.6997H151.576V24.3233H148.983V41.6997Z" fill="white"/>
<path d="M29.138 26.9993L14.3386 42.7063C14.34 42.7091 14.34 42.7118 14.3414 42.7146C14.7945 44.4215 16.3527 45.6767 18.2014 45.6767C18.9409 45.6767 19.6345 45.4765 20.2294 45.1263L20.2767 45.0985L36.9345 35.4866L29.138 26.9993Z" fill="#EB4335"/>
<path d="M44.1098 24.325L44.0959 24.3153L36.9041 20.1453L28.8018 27.3552L36.9319 35.4839L44.0862 31.357C45.34 30.6801 46.1907 29.3582 46.1907 27.8334C46.1907 26.3196 45.3511 25.0033 44.1098 24.325Z" fill="#FABC13"/>
<path d="M14.3389 12.895C14.2499 13.2231 14.2026 13.5664 14.2026 13.9236V41.6778C14.2026 42.035 14.2485 42.3797 14.3389 42.7064L29.6469 27.4011L14.3389 12.895Z" fill="#547DBF"/>
<path d="M29.2464 27.8L36.9067 20.1425L20.267 10.4959C19.6623 10.1331 18.9576 9.92456 18.2014 9.92456C16.3527 9.92456 14.7932 11.1825 14.3386 12.8908V12.895L29.2464 27.8Z" fill="#30A851"/>
<path d="M66.1931 13.6097H62.151V14.6119H65.1798C65.0978 15.4264 64.7711 16.0672 64.2249 16.5329C63.6772 16.9985 62.978 17.232 62.151 17.232C61.2419 17.232 60.4733 16.9179 59.845 16.2882C59.2278 15.6474 58.9123 14.8565 58.9123 13.9002C58.9123 12.9453 59.2278 12.153 59.845 11.5122C60.4733 10.8839 61.2419 10.5698 62.151 10.5698C62.6166 10.5698 63.06 10.6504 63.4673 10.8255C63.8746 11.0007 64.2012 11.2453 64.457 11.5594L65.2257 10.7908C64.8768 10.3946 64.4334 10.0916 63.8871 9.87059C63.3394 9.64958 62.7681 9.54395 62.151 9.54395C60.9389 9.54395 59.9145 9.96373 59.0763 10.8019C58.2367 11.6415 57.8184 12.677 57.8184 13.9002C57.8184 15.1234 58.2367 16.1603 59.0763 16.9985C59.9145 17.8381 60.9389 18.2565 62.151 18.2565C63.4201 18.2565 64.4334 17.8492 65.2145 17.0221C65.9012 16.3355 66.2515 15.4028 66.2515 14.238C66.2515 14.0406 66.2279 13.8307 66.1931 13.6097Z" fill="white"/>
<path d="M67.7889 9.73021V18.0702H72.6581V17.0458H68.8606V14.402H72.2841V13.3998H68.8606V10.756H72.6581V9.73021H67.7889Z" fill="white"/>
<path d="M79.5051 10.756V9.73021H73.7742V10.756H76.1038V18.0702H77.1755V10.756H79.5051Z" fill="white"/>
<path d="M84.7245 9.73021H83.6528V18.0702H84.7245V9.73021Z" fill="white"/>
<path d="M91.8066 10.756V9.73021H86.0756V10.756H88.4053V18.0702H89.477V10.756H91.8066Z" fill="white"/>
<path d="M102.651 10.8144C101.824 9.96372 100.811 9.54395 99.599 9.54395C98.3883 9.54395 97.3736 9.96373 96.5465 10.8019C95.7195 11.6289 95.3122 12.6659 95.3122 13.9002C95.3122 15.1359 95.7195 16.1715 96.5465 16.9985C97.3736 17.8381 98.3883 18.2565 99.599 18.2565C100.799 18.2565 101.824 17.8381 102.651 16.9985C103.478 16.1715 103.886 15.1359 103.886 13.9002C103.886 12.677 103.478 11.6415 102.651 10.8144ZM97.3166 11.5122C97.9338 10.8839 98.6899 10.5698 99.599 10.5698C100.508 10.5698 101.264 10.8839 101.87 11.5122C102.487 12.1307 102.79 12.9342 102.79 13.9002C102.79 14.8676 102.487 15.6711 101.87 16.2882C101.264 16.9179 100.508 17.232 99.599 17.232C98.6899 17.232 97.9338 16.9179 97.3166 16.2882C96.7106 15.6599 96.4075 14.8676 96.4075 13.9002C96.4075 12.9342 96.7106 12.1419 97.3166 11.5122Z" fill="white"/>
<path d="M106.46 12.8758L106.414 11.2675H106.46L110.701 18.0702H111.818V9.73021H110.747V14.6119L110.794 16.2187H110.747L106.694 9.73021H105.39V18.0702H106.46V12.8758Z" fill="white"/>
</g>
<defs>
<clipPath id="clip0_281_604">
<rect width="187.65" height="55.6" fill="white" transform="translate(0.341553)"/>
</clipPath>
</defs>
</svg>
